<svg xmlns="http://www.w3.org/2000/svg" viewBox="0 0 512 512"><path fill="#f5ebe3" d="m429.7 68.133-54.458 11.085q-3.27.667-5.694 3.03l-17.385 16.84q-2.726 2.604-5.694.302-7.633-5.936-11.086-4.058-10.843-13.206-14.477-7.209-3.332 8.965-12.843 16.537-3.876 3.03-5.39-1.575-2.969-8.844-.667-17.506a2.362 2.362 0 0 0-2.423-2.908q-1.575.06-1.151 1.454-1.454 7.27-5.876 10.116-3.574.606-2.665 5.634 2.06 11.994-3.695 20.172a8.36 8.723 60.1 0 0-1.575 5.452q1.272 20.05-6.603 39.132l-8.723 3.816-14.962-.06q-3.15 0-5.15 2.422l-17.263 21.686q-8.542 1.454-12.964-6.966-5.694-10.964-13.872-23.867a6.179 6.118 53 0 0-9.268-1.332q-3.998 3.574-9.026 1.514a3.453 3.513 18.4 0 0-4.664 2.363q-10.358 39.434-8.783 79.96-2.605 3.634-.243 5.149-1.999 8.965 1.696 16.78l.122 7.39q.12 4.24-4.12 4.3l-2.423.061q-3.998.06-3.331-3.877l1.15-7.269q.728-4.3-3.27-2.423-.788.363-1.394.97-1.817 1.695-2.241 4.118-3.574 20.233-14.962 32.772l-19.324 19.808q-2.18 2.181-2.18 5.331l-.122 16.719q0 4.664-4.422 6.36l-24.29 9.087q-17.023-3.029-24.776 6.905-5.15 6.543 3.089 5.089 7.935-1.393 15.629 2.06-2.424 13.69-11.692 14.053-13.811-2.362-20.11 6.118a12.842 12.842 0 0 0 1.938 17.446q41.858 35.74 95.104 47.916l14.72 3.755q1.635.424 2.483 1.939l1.03 1.938q1.333 2.423 3.756 3.514 5.27 2.483 7.087 8.177-1.393 1.696-6.178-2.847-5.513-4.18-11.025-2.786-3.09.787-1.636 3.634 9.268 17.75-4.482 16.174c-207.23-83.837-211.41-378.115-9.147-469.463C244.216-19.581 352.042-2.256 429.7 68.133Z"/><path fill="#170701" d="M317.756 51.354q-23.867 2.907-49.43-5.937-2.302-.787-1.272-2.908l.848-1.877a4.725 4.785 21 0 1 5.633-2.545q18.718 5.392 37.376 1.09a8.723 8.662 60.2 0 1 7.753 2.121q14.66 13.75 6.845 29.198-2.12 4.3-6.845 3.634-4.967-.666-9.752.97c-10.117 3.573-23.262-.485-31.318-7.21q-9.571-7.995 2.302-4.118 17.809 5.815 38.465-.485a6.179 6.179 0 0 0 4.362-5.634l.06-1.635q.182-5.27-5.027-4.664z"/><path fill="#026605" d="M263.298 54.867a4.907 4.907 0 0 1-.848 5.27q-3.332 3.635-7.693-.606a4.483 4.483 0 0 1-.727-5.512q5.149-8.905 9.268.848z"/><path fill="#e3c1ab" d="M429.7 68.133q90.5 88.986 80.566 207.654c-8.965 107.28-80.203 196.024-182.152 225.404q-31.62 9.086-78.022 10.721-40.888 1.394-91.166-19.384 13.75 1.575 4.482-16.174-1.454-2.847 1.636-3.634 5.512-1.393 11.025 2.786l1.574 3.877q1.03 2.666 3.817 3.332 34.952 8.662 70.752 4.482c13.327-1.514 23.867 2 37.558-.484q10.843-2 19.687-1.696a.192.448 68.5 0 1-.485.484q-4.361-.12-13.448-.787-1.332-.06-1.211-1.272v-.06q.06-1.152 1.211-1.152 17.143.303 34.226-.908 17.022-2.848 29.621-11.086 2.726-1.817-.545-1.817h-3.998q-2.908 0-1.03-2.18 1.636-2 3.877-2.06 15.144-.485 29.743-4.24 12.903-3.332 23.927-12.782 20.475-17.567 39.738-34.286 2.484-2.181 3.393-5.392l7.148-25.684q5.27-3.937 4.3-8.056-4.603-19.687-14.053-1.757c-10.359 19.687-51.43 40.222-72.025 27.501q-12.903-7.996 2.241-6.723 56.396 4.603 68.451-49.733a2.786 2.847 89.9 0 0-3.392-3.332q-21.202 4.664-25.442-17.143-.727-3.574-3.998-3.998-4.786-.666-9.329 3.574-6.24 5.936-1.878 13.387 3.817 6.482 3.393 14.539a10.54 10.843 26.2 0 0 2.423 7.45q6.42 7.754 9.995 16.84a2.847 2.847 0 0 1-2.242 3.817l-1.514.242q-5.936.909-8.784-4.422-5.512-10.358-9.45-20.05-2.24-5.452-8.601-6.24-8.057-.909-4.786-8.36 9.874-22.473 6.967-41.494-3.696-23.867-5.755-49.37-.121-1.15-1.212-1.15l-2.726-.06q-1.393-.062-1.453 1.392-.788 29.683.242 61.546.121 4.3-2.847 6.602-3.029 2.242-6.482 4.24-4.725 2.666-2.12-2.059 5.573-10.237 1.939-22.655-.849-8.784-.122-17.628c2.181-26.108-6.845-34.165-20.293-52.762l1.212-15.083q.242-2.908-2.544-3.756l-5.573-1.756a5.149 5.149 0 0 1-3.574-5.513l.727-6.179q.545-4.603-3.877-3.21-14.902 4.725-19.142-8.965-10.964-35.498 11.57-63.363 2.241-2.786-1.272-3.27-7.451-1.03-10.54 4.966-5.997 11.45-12.176 43.978l-29.864.849q7.875-19.082 6.603-39.133a8.36 8.723 60.1 0 1 1.575-5.451q5.754-8.178 3.695-20.172-.909-5.028 2.665-5.634.242 1.636.606 2.423.424 1.03 1.817.303 7.148-3.937 3.453-12.842-.424-1.393 1.15-1.454a2.362 2.362 0 0 1 2.424 2.908q-2.302 8.662.666 17.506 1.515 4.604 5.391 1.575 9.51-7.572 12.843-16.537 1.03 14.296 14.477 7.209 3.453-1.878 11.086 4.058 2.968 2.302 5.694-.303l17.385-16.84q2.423-2.362 5.694-3.029z"/><path fill="#026605" d="M298.432 84.125q3.695 8.905-3.453 12.842-1.393.727-1.817-.303-.364-.787-.606-2.423 4.422-2.847 5.876-10.116z"/><path fill="#170701" d="M335.383 95.332q-13.448 7.087-14.477-7.209 3.634-5.997 14.477 7.209zm-78.688 25.32q-8.117-14.598 1.151-25.744 6.542-7.875 3.635 1.938-3.272 11.146-4.483 24.654-.121 1.697-.182 0v-.424q0-.181-.12-.424z"/><path fill="#026605" d="M386.93 121.294a8.965 1.636 55.9 0 1-6.38-6.507 8.965 1.636 55.9 0 1-3.672-8.34 8.965 1.636 55.9 0 1 6.38 6.506 8.965 1.636 55.9 0 1 3.673 8.34z"/><path fill="#033703" d="M353.071 225.933q-9.268-.605-17.506-8.117-2.18-2.06-5.149-1.999-4.846.06-8.36 3.756-2.544 2.665-6.178 2.18-8.48-1.15-17.325 1.94-15.507 5.39-28.289-.728l-5.088-12.72q-1.212-3.03 1.09-5.453 3.21-3.331 9.935-5.39l20.11-3.03q3.03-.424 4.786-3.028 8.178-12.176 6.785-29.561 6.179-32.53 12.176-43.979 3.089-5.997 10.54-4.967 3.513.485 1.272 3.271-22.534 27.865-11.57 63.363 4.24 13.69 19.142 8.965 4.422-1.393 3.877 3.21l-.727 6.18a5.149 5.149 0 0 0 3.574 5.512l5.573 1.756q2.786.848 2.544 3.756z"/><path fill="#026605" d="M361.128 171.173q18.355-31.379-3.09-54.337-2.18-2.302.91-1.393.242.06.544.06.424.061.727.303 29.985 25.987 2.363 56.457-5.815 6.421-1.454-1.09zm-200.143-53.368c12.055 2.545 35.68 13.024 33.377 27.32q-.787 4.664-3.21.545-10.177-17.203-30.894-26.41-.484-.243-.303-.788v-.06q.243-.728 1.03-.607zm95.65 8.663c.666 7.148 3.392 15.386 1.211 22.292q-1.272 4.18-1.272-.182.06-11.025.303-22.353 0-.302-.242-.424-.061-.06 0 .667z"/><path fill="#009500" d="M231.92 192.495q-2.484.849-4.725.606-3.09-.303-3.756 2.726-.303 1.151.242 2.544.364 1.03 1.939 2.363 4.785 3.998 4.664 10.661-2.484 2.302-2.06 6.3a7.27 7.572 61 0 1-1.696 5.452q-8.602 10.358-14.901 23.927c-3.574 7.694-9.147 12.237-14.78 18.113q-2.545 2.604-6.059 1.696-3.089-.788-5.815-2.726-2.726-1.939-5.028.545-2.847 3.09-5.149 1.393-3.695-7.814-1.696-16.78 5.997 4.06 11.267 2.787 3.756-.908 3.696-4.785l-1.03-43.676q-.06-3.392-3.332-2.604-1.999.484-2.302 3.09-2.18 22.594-8.056 40.04-1.575-40.526 8.783-79.96a3.453 3.513 18.4 0 1 4.664-2.363q5.028 2.06 9.026-1.514a6.179 6.118 53 0 1 9.268 1.332q8.178 12.903 13.872 23.867 4.422 8.42 12.964 6.967zm75.962-28.712q1.393 17.385-6.785 29.56-1.756 2.605-4.785 3.03L276.2 199.4q-16.659.848-23.443-9.45l2.847-7.208q-.606 7.027 4.725 8.783 3.028 1.03 5.573-.848 12.054-8.662-3.332-15.507 0-7.754 6.724-6.724l8.723-3.816z"/><path fill="#033703" d="M269.295 168.447q-6.724-1.03-6.724 6.724-5.936 1.514-6.966 7.572l-2.847 7.208-20.233 23.383q-1.03 1.211-1.756-.182-.303-.666-.485-1.757.121-6.663-4.664-10.661-1.575-1.333-1.939-2.363-.545-1.393-.242-2.544.666-3.029 3.756-2.726 2.24.243 4.725-.605l17.264-21.687q1.999-2.423 5.149-2.423z"/><path fill="#e3c1ab" d="M262.57 175.17q15.387 6.846 3.333 15.508-2.545 1.878-5.573.848-5.331-1.756-4.725-8.783 1.03-6.058 6.966-7.572z"/><path fill="#026605" d="M363.7 198.99a.909 8.238 37.9 0 1 4.344-7.059.909 8.238 37.9 0 1 5.778-5.942.909 8.238 37.9 0 1-4.344 7.058.909 8.238 37.9 0 1-5.778 5.943zM252.758 189.951q6.784 10.298 23.443 9.45-6.724 2.06-9.935 5.391-2.302 2.423-1.09 5.452l5.088 12.721q-5.694-2.483-9.753-2.483-3.331 0-4.3 3.21l-3.393 11.207q-11.388 11.449-9.328 25.866a4.725 4.725 0 0 0 7.269 3.27q3.452-2.301 2.665-6.723 4.24 16.174-.121 31.257-1.272 4.24-5.33 2.423-3.938-1.817-8.3-1.272-2.786.363-1.09 2.605.848 1.15 1.999.605 4.3-1.999 4.24 2.666-.06 8.723 7.693 15.87.667 3.999 6.421 1.94-4.725 3.391-4.119 10.54c-8.723-7.33-16.78-15.993-28.107-17.204q-10.904-1.151-18.415 4.967-22.292-10.056-30.833 1.817a6.421 6.3 15.9 0 1-4.786 2.605q-3.634.182-4.664-3.271 2.423-6.906 5.633-13.75 3.03-6.422-1.696-9.39-3.392-2.12-7.753-.242-9.026 3.998-12.116 14.84-6.42-.666-7.753-2.18 11.388-12.54 14.962-32.772.424-2.423 2.241-4.119.606-.606 1.394-.969 3.998-1.878 3.27 2.423l-1.15 7.27q-.667 3.937 3.331 3.876l2.423-.06q4.24-.061 4.12-4.301l-.122-7.39q2.302 1.695 5.15-1.394 2.301-2.484 5.027-.545 2.726 1.938 5.815 2.726 3.514.908 6.058-1.696c5.634-5.876 11.207-10.42 14.78-18.113q6.3-13.569 14.902-23.927a7.27 7.572 61 0 0 1.696-5.452q-.424-3.998 2.06-6.3.182 1.09.485 1.757.726 1.393 1.756.182z"/><path fill="#e3c1ab" d="M173.1 249.316q-2.362-1.515.243-5.15 5.875-17.445 8.056-40.04.303-2.605 2.302-3.09 3.271-.787 3.332 2.605l1.03 43.676q.06 3.877-3.696 4.785-5.27 1.272-11.267-2.786z"/><path fill="#026605" d="M215.416 211.098a4.361 2.605 59.5 0 1-4.458-2.436 4.361 2.605 59.5 0 1 .03-5.08 4.361 2.605 59.5 0 1 4.459 2.436 4.361 2.605 59.5 0 1-.031 5.08z"/><path fill="#009500" d="M390.69 214.787a2.968 2.908 70.8 0 1 1.756-3.695l1.514-.545q.364-.121.485.182 9.813 21.504 16.9 43.009a8.541 8.723 6.7 0 0 3.514 4.543q5.452 3.574 3.453 9.874-5.937 18.9-19.082 26.35-.787.424-1.575.122-2.726-.97-.666-2.969 10.722-10.48 16.9-23.08 1.454-2.967-1.21-4.906-4.18-3.09-6.18-7.693-8.36-19.505-15.81-41.192zm-37.619 11.146c13.448 18.597 22.474 26.654 20.293 52.762q-.727 8.844.122 17.628-3.09-7.512-11.813-3.393-3.029 1.394-3.331 4.725-.667 6.664.726 12.721 1.212 5.392-3.21 2.06l-3.998-2.968q-2.605-2-5.876-2.12-3.816-.122-3.756 1.938.182 3.756-3.574 3.453l-10.237-.788q-1.817-3.877-5.27-5.876-3.15-1.817-3.332 1.818l-.182 3.574q-1.999-1.272-2.12-4.18-.181-2.968-3.028-3.816-1.757-.546-3.817.484-.666.364-.848 1.151-.303 1.151.424 1.939 1.151 1.211-.303 2.18-.969.606-1.938.121-1.939-.908-.606.788 5.694 7.572 12.6 17.204.666.969-.121 1.817l-2.18 2.241a1.514 1.514 0 0 1-2.303-.182l-8.238-11.63q-1.575-8.42-6.542-15.992a6.845 6.785 76.8 0 0-4.665-2.908q-14.962-2.06-26.23-14.538a5.573 5.573 0 0 0-9.752 3.877l.606 21.201q-1.212.727-1.636 2.181-5.754 2.06-6.42-1.938-7.754-7.148-7.694-15.871.06-4.665-4.24-2.666-1.151.546-2-.605-1.695-2.242 1.091-2.605 4.362-.545 8.3 1.272 4.058 1.817 5.33-2.423 4.361-15.083.121-31.257 6.603-11.873 3.635-22.716-.667-2.605-4.24.303l3.391-11.207q.97-3.21 4.301-3.21 4.059 0 9.753 2.483 12.782 6.118 28.29.727 8.843-3.09 17.324-1.938 3.634.484 6.179-2.181 3.513-3.695 8.359-3.756 2.968-.06 5.149 2 8.238 7.51 17.506 8.116z"/><path fill="#fbba27" d="M253.424 257.312q.787 4.422-2.665 6.724a4.725 4.725 0 0 1-7.27-3.271q-2.06-14.417 9.33-25.866 3.573-2.908 4.24-.303 2.968 10.843-3.635 22.716z"/><path fill="#033703" d="M461.623 381.795q-11.085 20.899-21.504 26.048-14.054 6.906-28.774 14.538-14.053 7.209-29.258 9.571-18.9 2.968-36.89 3.453-3.756.06-5.331 3.513-.788 1.818-2.726 1.878-32.832 1.757-64.453 2.847c-14.66.546-27.683 6.18-41.918 8.481q-4.362.727-2.302-3.21 1.696-3.15 4.603-5.695 23.201-8.723 38.95-30.47 16.599-21.383 4.12-56.396c-4.12-11.63-14.72-21.322-21.323-32.408q-.606-7.148 4.12-10.54.423-1.454 1.635-2.18 29.864-14.478 46.583 8.359l8.238 11.63a1.514 1.514 0 0 0 2.302.182l2.18-2.241q.788-.848.122-1.817-6.906-9.632-12.6-17.204-1.333-1.696.606-.787.97.484 1.938-.122 1.454-.969.303-2.18-.727-.788-.424-1.939.182-.787.848-1.15 2.06-1.03 3.817-.485 2.847.848 3.028 3.816.121 2.908 2.12 4.18 1.818 8.662 7.088 14.174 2.423 2.545 3.877-.605 2.483-5.15-2.181-13.085l10.237.788q3.756.303 3.574-3.453-.06-2.06 3.756-1.939 3.271.122 5.876 2.12l3.998 2.969q4.422 3.332 3.21-2.06-1.393-6.057-.726-12.72.302-3.332 3.331-4.726 8.723-4.119 11.812 3.393 3.635 12.418-1.938 22.655-2.605 4.725 2.12 2.06 3.453-2 6.482-4.24 2.968-2.303 2.847-6.603-1.03-31.863-.242-61.546.06-1.453 1.453-1.393l2.726.06q1.09 0 1.212 1.152 2.06 25.502 5.755 49.37 2.907 19.02-6.967 41.494-3.27 7.45 4.786 8.36 6.36.787 8.602 6.238 3.937 9.693 9.45 20.051 2.847 5.33 8.783 4.422l1.514-.242a2.847 2.847 0 0 0 2.242-3.816q-3.574-9.087-9.995-16.84a10.54 10.843 26.2 0 1-2.423-7.451q.424-8.057-3.393-14.539-4.361-7.45 1.878-13.387 4.543-4.24 9.329-3.574 3.271.424 3.998 3.998 4.24 21.807 25.442 17.143a2.786 2.847 89.9 0 1 3.392 3.332q-12.055 54.336-68.45 49.733-15.145-1.273-2.242 6.724c20.596 12.72 61.666-7.815 72.025-27.502q9.45-17.93 14.053 1.757.97 4.119-4.3 8.056z"/><path fill="#026605" d="M366.92 286.558a19.869 3.635 49.6 0 1-15.645-12.775 19.869 3.635 49.6 0 1-10.11-17.487 19.869 3.635 49.6 0 1 15.645 12.776 19.869 3.635 49.6 0 1 10.11 17.486zM346.083 301.543a11.873 1.575 47.8 0 1-9.142-7.737 11.873 1.575 47.8 0 1-6.808-9.854 11.873 1.575 47.8 0 1 9.142 7.738 11.873 1.575 47.8 0 1 6.808 9.853zM307.155 319.584q-16.72-22.837-46.583-8.36l-.606-21.201a5.573 5.573 0 0 1 9.753-3.877q11.267 12.479 26.23 14.538a6.845 6.785 76.8 0 1 4.664 2.908q4.967 7.572 6.542 15.992z"/><path fill="#e3c1ab" d="M168.012 312.86q-9.935-.485-15.932-8.541 3.09-10.843 12.116-14.841 4.361-1.878 7.753.242 4.725 2.968 1.696 9.39-3.21 6.844-5.633 13.75z"/><path fill="#f78d43" d="M144.327 302.138q1.332 1.514 7.753 2.18 5.997 8.057 15.932 8.542 1.03 3.453 4.664 3.271a6.421 6.3 15.9 0 0 4.786-2.605q8.541-11.873 30.833-1.817 13.024 18.476 32.53 31.923 11.448 7.875 25.199 37.86 1.272 2.726.303 5.573-9.692 28.41 5.694 25.685-15.75 21.746-38.95 30.47l-52.58 6.3q-9.753-3.696-16.901-2.12-1.757.363-3.09-.122-4.724-1.878.727-1.333 7.754.667 14.175-4.604 4.422-3.634-1.09-1.999-3.15.91-6.785.788-.908 0-.363-.727.242-.363.666-.485 2.968-.908-.182-.848-2.665.061-5.512 0-5.694-.181-.666-2.847 2.726-1.454 5.391-2.907.787-.424-.06-.243-22.05 5.816-33.56-11.873-1.696-2.544-4.603-3.513-11.207-3.695-25.927-2.484a13.75 13.69 70.3 0 1-12.6-5.997L76.24 387.55q9.268-.363 11.692-14.054 7.208-.666 6.057-14.053l24.291-9.087q4.422-1.696 4.422-6.36l.121-16.719q0-3.15 2.181-5.33z"/><path fill="#026605" d="M328.417 311.951q4.664 7.936 2.18 13.085-1.453 3.15-3.876.605-5.27-5.512-7.088-14.174l.182-3.574q.182-3.635 3.332-1.818 3.453 2 5.27 5.876z"/><path fill="#fbba27" d="M254.817 323.945c6.603 11.086 17.204 20.778 21.323 32.408q12.479 35.013-4.12 56.397-15.385 2.726-5.693-25.685.969-2.847-.303-5.573-13.751-29.985-25.2-37.86-19.505-13.447-32.53-31.923 7.512-6.118 18.416-4.967c11.328 1.211 19.384 9.874 28.107 17.203zm97.103 24.352q-.302 1.15-1.15 1.938-2.242 1.939-5.15 1.454-8.298-1.333-14.598-6.845a4.543 4.543 0 0 1-.545-6.3q17.203-21.201 41.797 0a6.603 6.542 46.1 0 1-.182 10.056q-7.693 6.178-14.477-1.575a3.332 3.332 0 0 0-5.695 1.272zm-16.597 11.933a6.421 6.421 0 0 1 0 9.026l-16.78 16.72a13.872 19.263 45.1 0 1-23.443 3.755l-.06-.06a13.872 19.263 45.1 0 1 3.876-23.444l16.72-16.658a6.421 6.421 0 0 1 9.086 0zm36.951 25.866-16.84-13.024a5.512 5.512 0 0 1 .727-9.207l25.32-13.75a5.512 5.512 0 0 1 7.027 1.513l15.871 20.839a5.512 5.512 0 0 1-3.09 8.662L377 387.126a5.512 5.512 0 0 1-4.725-1.03z"/><path fill="#026605" d="M93.988 359.443q1.151 13.387-6.057 14.053-7.694-3.452-15.63-2.06-8.237 1.455-3.088-5.088 7.753-9.934 24.775-6.905z"/><path fill="#e3c1ab" d="m193.03 387.49.545 9.025q.424 6.421-5.876 7.875-5.694 1.212-11.449.242a6.906 6.906 0 0 1-5.512-8.238q5.028-23.867 26.41-28.35a3.029 3.09 11.2 0 1 3.15 4.726l-5.39 7.874q-2.06 3.09-1.878 6.845z"/><path fill="#fbba27" d="M348.468 376.586a.727.727 0 0 1 1.03.06l.12.182a11.328 26.23 49.5 0 1-12.6 25.624l-3.452 2.968a11.328 26.23 49.5 0 1-27.32 8.42l-.12-.121a.727.727 0 0 1 .06-1.03z"/><path fill="#026605" d="m461.623 381.795-7.147 25.685q-.91 3.21-3.393 5.39-19.263 16.72-39.738 34.287-11.024 9.45-23.927 12.781-14.599 3.756-29.743 4.24-2.241.061-3.877 2.06-1.878 2.18 1.03 2.18h3.998q3.271 0 .545 1.818-12.6 8.239-29.621 11.086-20.657-1.697-41.192.424-18.052 1.817-31.62 1.453-16.296-.424-31.803.303h-.06q-.122.06-.061.182.182.242.484.182 7.815-1.817 16.477-3.574 4.301-.909.182-2.363-4.665-1.575-9.208.424-9.995 4.362-20.777 3.332-9.45-.909-18.84.485a5.815 5.876 64.1 0 1-5.027-1.696q-3.695-3.756-6.058-2.12-1.817-5.695-7.087-8.178-2.423-1.09-3.756-3.514l-1.03-1.938q-.848-1.515-2.483-1.939l-14.72-3.755 12.6.12q2.968 0 5.33-1.877l9.39-7.754 52.58-6.3q-2.908 2.545-4.604 5.694-2.06 3.938 2.302 3.211c14.235-2.302 27.259-7.935 41.918-8.48q31.62-1.091 64.453-2.848 1.938-.06 2.726-1.878 1.575-3.452 5.33-3.513 17.992-.485 36.891-3.453 15.205-2.362 29.258-9.57 14.72-7.633 28.774-14.539 10.419-5.149 21.504-26.048z"/><path fill="#170701" d="m76.24 387.55 13.871 20.656a13.75 13.69 70.3 0 0 12.6 5.997q14.72-1.211 25.927 2.484 2.907.97 4.603 3.513 11.51 17.689 33.56 11.873.847-.181.06.243-2.665 1.453-5.391 2.907-5.028 2.666.666 2.847 2.847.061 5.512 0 3.15-.06.182.848-.424.122-.666.485-.545.727.363.727 3.635.121 6.785-.788 5.512-1.635 1.09 2-6.42 5.27-14.175 4.603-5.451-.545-.726 1.333 1.332.485 3.089.121 7.148-1.575 16.9 2.12l-9.389 7.754q-2.362 1.878-5.33 1.878l-12.6-.121q-53.246-12.176-95.104-47.916a12.842 12.842 0 0 1-1.939-17.446q6.3-8.48 20.111-6.118z"/><path fill="#fbba27" d="M176.069 475.506q4.785 4.544 6.178 2.847 2.363-1.635 6.058 2.12a5.815 5.876 64.1 0 0 5.028 1.697q9.389-1.394 18.839-.485 10.782 1.03 20.777-3.332 4.544-1.999 9.208-.424 4.119 1.454-.182 2.363-8.662 1.757-16.477 3.574-.302.06-.484-.182-.06-.121.06-.182h.061q15.508-.727 31.802-.303 13.57.364 31.621-1.453 20.535-2.12 41.192-.424-17.083 1.211-34.226.908-1.15 0-1.211 1.151v.06q-.121 1.212 1.211 1.273 9.087.666 13.448.787a.192.448 68.5 0 0 .485-.484q-8.844-.303-19.687 1.696c-13.69 2.484-24.23-1.03-37.557.484q-35.8 4.18-70.753-4.482-2.787-.666-3.816-3.332z"/></svg>